<?xml version="1.0" encoding="utf-8"?>
<!-- Generator: Adobe Illustrator 23.0.4, SVG Export Plug-In . SVG Version: 6.00 Build 0)  -->
<svg version="1.1" id="Livello_1" xmlns="http://www.w3.org/2000/svg" xmlns:xlink="http://www.w3.org/1999/xlink" x="0px" y="0px"
	 viewBox="0 0 80 80" style="enable-background:new 0 0 80 80;" xml:space="preserve">
<style type="text/css">
	.st0{fill:none;stroke:#000000;stroke-width:2.0263;stroke-miterlimit:10;}
	.st1{stroke:#000000;stroke-miterlimit:10;}
</style>
<path class="st0" d="M74.7,79H5.3C2.9,79,1,77.1,1,74.7V5.4C1,3,2.9,1.1,5.3,1.1h69.4C77.1,1.1,79,3,79,5.4v69.4
	C79,77.1,77.1,79,74.7,79z"/>
<circle cx="6.1" cy="6.2" r="1"/>
<circle cx="6.1" cy="11.8" r="1"/>
<circle cx="11.8" cy="6.2" r="1"/>
<circle cx="11.8" cy="11.8" r="1"/>
<circle cx="17.4" cy="6.2" r="1"/>
<circle cx="23.1" cy="6.2" r="1"/>
<circle cx="28.7" cy="6.2" r="1"/>
<circle cx="34.4" cy="6.2" r="1"/>
<circle cx="40" cy="6.2" r="1"/>
<circle cx="45.7" cy="6.2" r="1"/>
<circle cx="51.3" cy="6.2" r="1"/>
<circle cx="57" cy="6.2" r="1"/>
<circle cx="62.6" cy="6.2" r="1"/>
<circle cx="68.3" cy="6.2" r="1"/>
<circle cx="73.9" cy="6.2" r="1"/>
<circle cx="17.4" cy="11.8" r="1"/>
<circle cx="23.1" cy="11.8" r="1"/>
<circle cx="28.7" cy="11.8" r="1"/>
<circle cx="34.4" cy="11.8" r="1"/>
<circle cx="40" cy="11.8" r="1"/>
<circle cx="45.7" cy="11.8" r="1"/>
<circle cx="51.3" cy="11.8" r="1"/>
<circle cx="57" cy="11.8" r="1"/>
<circle cx="62.6" cy="11.8" r="1"/>
<circle cx="68.3" cy="11.8" r="1"/>
<circle cx="73.9" cy="11.8" r="1"/>
<circle cx="6.1" cy="17.5" r="1"/>
<circle cx="11.8" cy="17.5" r="1"/>
<circle cx="17.4" cy="17.5" r="1"/>
<circle cx="23.1" cy="17.5" r="1"/>
<circle cx="28.7" cy="17.5" r="1"/>
<circle cx="34.4" cy="17.5" r="1"/>
<circle cx="40" cy="17.5" r="1"/>
<circle cx="45.7" cy="17.5" r="1"/>
<circle cx="51.3" cy="17.5" r="1"/>
<circle cx="57" cy="17.5" r="1"/>
<circle cx="62.6" cy="17.5" r="1"/>
<circle cx="68.3" cy="17.5" r="1"/>
<circle cx="73.9" cy="17.5" r="1"/>
<circle cx="6.1" cy="23.1" r="1"/>
<circle cx="11.8" cy="23.1" r="1"/>
<circle cx="17.4" cy="23.1" r="1"/>
<circle cx="23.1" cy="23.1" r="1"/>
<circle cx="28.7" cy="23.1" r="1"/>
<circle cx="34.4" cy="23.1" r="1"/>
<circle cx="40" cy="23.1" r="1"/>
<circle cx="45.7" cy="23.1" r="1"/>
<circle cx="51.3" cy="23.1" r="1"/>
<circle cx="57" cy="23.1" r="1"/>
<circle cx="62.6" cy="23.1" r="1"/>
<circle cx="68.3" cy="23.1" r="1"/>
<circle cx="73.9" cy="23.1" r="1"/>
<circle cx="6.1" cy="28.8" r="1"/>
<circle cx="11.8" cy="28.8" r="1"/>
<circle cx="17.4" cy="28.8" r="1"/>
<circle cx="23.1" cy="28.8" r="1"/>
<circle cx="28.7" cy="28.8" r="1"/>
<circle cx="34.4" cy="28.8" r="1"/>
<circle cx="40" cy="28.8" r="1"/>
<circle cx="45.7" cy="28.8" r="1"/>
<circle cx="51.3" cy="28.8" r="1"/>
<circle cx="57" cy="28.8" r="1"/>
<circle cx="62.6" cy="28.8" r="1"/>
<circle cx="68.3" cy="28.8" r="1"/>
<circle cx="73.9" cy="28.8" r="1"/>
<circle cx="6.1" cy="34.5" r="1"/>
<circle cx="11.8" cy="34.5" r="1"/>
<circle cx="17.4" cy="34.5" r="1"/>
<circle cx="23.1" cy="34.5" r="1"/>
<circle cx="28.7" cy="34.5" r="1"/>
<circle cx="34.4" cy="34.5" r="1"/>
<circle cx="40" cy="34.5" r="1"/>
<circle cx="45.7" cy="34.5" r="1"/>
<circle cx="51.3" cy="34.5" r="1"/>
<circle cx="57" cy="34.5" r="1"/>
<circle cx="62.6" cy="34.5" r="1"/>
<circle cx="68.3" cy="34.5" r="1"/>
<circle cx="73.9" cy="34.5" r="1"/>
<circle cx="6.1" cy="40.1" r="1"/>
<circle cx="11.8" cy="40.1" r="1"/>
<circle cx="17.4" cy="40.1" r="1"/>
<circle cx="23.1" cy="40.1" r="1"/>
<circle cx="28.7" cy="40.1" r="1"/>
<circle cx="34.4" cy="40.1" r="1"/>
<circle cx="40" cy="40.1" r="1"/>
<circle cx="45.7" cy="40.1" r="1"/>
<circle cx="51.3" cy="40.1" r="1"/>
<circle cx="57" cy="40.1" r="1"/>
<circle cx="62.6" cy="40.1" r="1"/>
<circle cx="68.3" cy="40.1" r="1"/>
<circle cx="73.9" cy="40.1" r="1"/>
<circle cx="6.1" cy="45.8" r="1"/>
<circle cx="11.8" cy="45.8" r="1"/>
<circle cx="17.4" cy="45.8" r="1"/>
<circle cx="23.1" cy="45.8" r="1"/>
<circle cx="28.7" cy="45.8" r="1"/>
<circle cx="34.4" cy="45.8" r="1"/>
<circle cx="40" cy="45.8" r="1"/>
<circle cx="45.7" cy="45.8" r="1"/>
<circle cx="51.3" cy="45.8" r="1"/>
<circle cx="57" cy="45.8" r="1"/>
<circle cx="62.6" cy="45.8" r="1"/>
<circle cx="68.3" cy="45.8" r="1"/>
<circle cx="73.9" cy="45.8" r="1"/>
<circle cx="6.1" cy="51.4" r="1"/>
<circle cx="11.8" cy="51.4" r="1"/>
<circle cx="17.4" cy="51.4" r="1"/>
<circle cx="23.1" cy="51.4" r="1"/>
<circle cx="28.7" cy="51.4" r="1"/>
<circle cx="34.4" cy="51.4" r="1"/>
<circle cx="40" cy="51.4" r="1"/>
<circle cx="45.7" cy="51.4" r="1"/>
<circle cx="51.3" cy="51.4" r="1"/>
<circle cx="57" cy="51.4" r="1"/>
<circle cx="62.6" cy="51.4" r="1"/>
<circle cx="68.3" cy="51.4" r="1"/>
<circle cx="73.9" cy="51.4" r="1"/>
<circle cx="6.1" cy="57.1" r="1"/>
<circle cx="11.8" cy="57.1" r="1"/>
<circle cx="17.4" cy="57.1" r="1"/>
<circle cx="23.1" cy="57.1" r="1"/>
<circle cx="28.7" cy="57.1" r="1"/>
<circle cx="34.4" cy="57.1" r="1"/>
<circle cx="40" cy="57.1" r="1"/>
<circle cx="45.7" cy="57.1" r="1"/>
<circle cx="51.3" cy="57.1" r="1"/>
<circle cx="57" cy="57.1" r="1"/>
<circle cx="62.6" cy="57.1" r="1"/>
<circle cx="68.3" cy="57.1" r="1"/>
<circle cx="73.9" cy="57.1" r="1"/>
<circle cx="6.1" cy="62.8" r="1"/>
<circle cx="11.8" cy="62.8" r="1"/>
<circle cx="17.4" cy="62.8" r="1"/>
<circle cx="23.1" cy="62.8" r="1"/>
<circle cx="28.7" cy="62.8" r="1"/>
<circle cx="34.4" cy="62.8" r="1"/>
<circle cx="40" cy="62.8" r="1"/>
<circle cx="45.7" cy="62.8" r="1"/>
<circle cx="51.3" cy="62.8" r="1"/>
<circle cx="57" cy="62.8" r="1"/>
<circle cx="62.6" cy="62.8" r="1"/>
<circle cx="68.3" cy="62.8" r="1"/>
<circle cx="73.9" cy="62.8" r="1"/>
<circle cx="6.1" cy="68.4" r="1"/>
<circle cx="11.8" cy="68.4" r="1"/>
<circle cx="17.4" cy="68.4" r="1"/>
<circle cx="23.1" cy="68.4" r="1"/>
<circle cx="28.7" cy="68.4" r="1"/>
<circle cx="34.4" cy="68.4" r="1"/>
<circle cx="40" cy="68.4" r="1"/>
<circle cx="45.7" cy="68.4" r="1"/>
<circle cx="51.3" cy="68.4" r="1"/>
<circle cx="57" cy="68.4" r="1"/>
<circle cx="62.6" cy="68.4" r="1"/>
<circle cx="68.3" cy="68.4" r="1"/>
<circle cx="73.9" cy="68.4" r="1"/>
<circle cx="6.1" cy="74.1" r="1"/>
<circle cx="11.8" cy="74.1" r="1"/>
<circle cx="17.4" cy="74.1" r="1"/>
<circle cx="23.1" cy="74.1" r="1"/>
<circle cx="28.7" cy="74.1" r="1"/>
<circle cx="34.4" cy="74.1" r="1"/>
<circle cx="40" cy="74.1" r="1"/>
<circle cx="45.7" cy="74.1" r="1"/>
<circle cx="51.3" cy="74.1" r="1"/>
<circle cx="57" cy="74.1" r="1"/>
<circle cx="62.6" cy="74.1" r="1"/>
<circle cx="68.3" cy="74.1" r="1"/>
<circle cx="73.9" cy="74.1" r="1"/>
<g>
	<path class="st1" d="M58.1,51.4l8-8c0.3-0.3,0.3-0.8,0-1.1l-8.6-8.6c-0.1-0.2-0.3-0.2-0.6-0.2c-0.5,0-0.8,0.4-0.8,0.8v15.2
		l-7.2-7.2c-0.3-0.3-0.8-0.3-1.1,0c-0.3,0.3-0.3,0.8,0,1.1l8,8l-8,8c-0.3,0.3-0.3,0.8,0,1.1c0.2,0.2,0.4,0.2,0.6,0.2
		c0.2,0,0.4-0.1,0.6-0.2l7.2-7.2v15.2c0,0.5,0.4,0.8,0.8,0.8c0.2,0,0.4-0.1,0.6-0.2l8.6-8.6c0.3-0.3,0.3-0.8,0-1.1L58.1,51.4z
		 M57.8,49.4V36.2l6.6,6.6L57.8,49.4z M57.8,66.6V53.4l6.6,6.6L57.8,66.6z"/>
</g>
</svg>
