<?xml version="1.0" encoding="utf-8"?>
<!-- Generator: Adobe Illustrator 23.0.4, SVG Export Plug-In . SVG Version: 6.00 Build 0)  -->
<svg version="1.1" id="Livello_1" xmlns="http://www.w3.org/2000/svg" xmlns:xlink="http://www.w3.org/1999/xlink" x="0px" y="0px"
	 viewBox="0 0 80 80" style="enable-background:new 0 0 80 80;" xml:space="preserve">
<style type="text/css">
	.st0{fill:none;stroke:#000000;stroke-width:2.0263;stroke-miterlimit:10;}
</style>
<path d="M41.57,37.38c0.7,0,1.31-0.61,1.31-1.31s-0.6-1.31-1.31-1.31c-0.71,0-1.31,0.61-1.31,1.31
	C40.26,36.86,40.87,37.38,41.57,37.38z M37.92,25.46h16.09c0.52,0,0.86-0.44,0.86-0.86c0-0.44-0.44-0.86-0.86-0.86H37.92
	c-0.52,0-0.86,0.44-0.86,0.86C37.05,25.02,37.4,25.46,37.92,25.46z M32.17,21.63c-0.34-0.34-0.95-0.34-1.31,0l-4.26,4.26l-1.3-1.39
	c-0.34-0.34-0.95-0.34-1.31,0c-0.35,0.34-0.34,0.95,0,1.31l2,2c0.18,0.18,0.44,0.27,0.61,0.27c0.18,0,0.44-0.09,0.61-0.27l4.87-4.87
	C32.52,22.5,32.52,21.99,32.17,21.63z M73.37,31.82H61.23V13.07c0-0.52-0.44-0.86-0.86-0.86H18.43c-0.52,0-0.86,0.44-0.86,0.86
	v29.36H6.68c-0.52,0-0.86,0.44-0.86,0.86V68.6c0,0.52,0.44,0.86,0.86,0.86h30.98l0,0l0,0H73.3c0.52,0,0.86-0.44,0.86-0.86V32.68
	C74.25,32.25,73.9,31.82,73.37,31.82z M19.29,13.94H59.4v17.87H28.86c-0.52,0-0.86,0.44-0.86,0.86v9.66h-8.61v-28.4L19.29,13.94
	L19.29,13.94z M36.79,67.74H7.64v-1.39l6.26-6.26l3.22,3.22c0.34,0.34,0.95,0.34,1.31,0L28.6,53.14l8.18,8.18
	C36.79,61.3,36.79,67.74,36.79,67.74z M36.79,58.7l-7.57-7.57c-0.34-0.34-0.95-0.34-1.31,0L17.73,61.3l-3.22-3.22
	c-0.34-0.34-0.95-0.34-1.31,0l-5.66,5.66V44.17h29.23L36.79,58.7L36.79,58.7z M72.51,67.74h-33.9V43.29c0-0.52-0.44-0.86-0.86-0.86
	h-7.91v-1.74H72.6v27.05H72.51z M72.51,38.94H29.73v-5.31H72.5L72.51,38.94L72.51,38.94z M16.17,55.39c2.18,0,4-1.83,4-4
	c0-2.18-1.83-4-4-4s-4,1.83-4,4C12.16,53.56,13.9,55.39,16.17,55.39z M16.17,49.22c1.22,0,2.18,0.95,2.18,2.18
	c0,1.22-0.95,2.18-2.18,2.18s-2.18-0.95-2.18-2.18C13.9,50.17,14.95,49.22,16.17,49.22z M48.96,60.26c0.18,0.09,0.27,0.09,0.44,0.09
	s0.34,0,0.44-0.09l8.09-4.78c0.27-0.18,0.44-0.44,0.44-0.79c0-0.34-0.18-0.61-0.44-0.79l-8.09-4.78c-0.27-0.18-0.61-0.18-0.86,0
	c-0.27,0.18-0.44,0.44-0.44,0.79v9.66C48.53,59.74,48.7,60.09,48.96,60.26z M50.27,51.39l5.39,3.22l-5.39,3.31V51.39z M37.13,37.38
	c0.7,0,1.31-0.61,1.31-1.31s-0.61-1.31-1.31-1.31s-1.31,0.61-1.31,1.31C35.83,36.86,36.35,37.38,37.13,37.38z M32.61,37.38
	c0.7,0,1.31-0.61,1.31-1.31s-0.61-1.31-1.31-1.31s-1.31,0.61-1.31,1.31C31.3,36.86,31.91,37.38,32.61,37.38z"/>
<path class="st0" d="M74.7,79.03H5.3c-2.37,0-4.3-1.93-4.3-4.3V5.36c0-2.37,1.92-4.3,4.3-4.3H74.7c2.37,0,4.3,1.93,4.3,4.3v69.37
	C79.01,77.1,77.09,79.03,74.7,79.03z"/>
</svg>
