<?xml version="1.0" encoding="utf-8"?>
<!-- Generator: Adobe Illustrator 23.0.4, SVG Export Plug-In . SVG Version: 6.00 Build 0)  -->
<svg version="1.1" id="Livello_1" xmlns="http://www.w3.org/2000/svg" xmlns:xlink="http://www.w3.org/1999/xlink" x="0px" y="0px"
	 viewBox="0 0 80 80" style="enable-background:new 0 0 80 80;" xml:space="preserve">
<style type="text/css">
	.st0{fill:none;stroke:#000000;stroke-width:2.0263;stroke-miterlimit:10;}
</style>
<g>
	<path d="M1,80h78c0.6,0,1-0.4,1-1V25.2c0-0.5-0.4-1-1-1H58.8c0,0,0,0-0.1,0V13.1l1.8,1c0.2,0.1,0.3,0.1,0.5,0.1
		c0.3,0,0.7-0.2,0.9-0.5c0.3-0.5,0.1-1.1-0.4-1.4l-21-12.2c-0.3-0.2-0.7-0.2-1,0l-21,12.2c-0.5,0.3-0.6,0.9-0.4,1.4s0.9,0.6,1.4,0.4
		l1.8-1v11.1H1c-0.6,0-1,0.5-1,1V79C0,79.6,0.4,80,1,80z M61.9,74.1V78H18v-3.9H61.9z M48.9,72.1h-7.8V53.6h7.8
		C48.9,53.6,48.9,72.1,48.9,72.1z M39.1,72.1h-8V53.6h8V72.1z M58.8,26.2H78V78H63.9v-4.9c0-0.6-0.5-1-1-1h-4.1L58.8,26.2
		C58.8,26.1,58.8,26.2,58.8,26.2z M40,2.2l16.8,9.7v60.2h-5.9V52.6c0-0.5-0.5-1-1-1H30.1c-0.5,0-1,0.5-1,1v19.5h-5.9V11.9L40,2.2z
		 M2,26.2h19.2v45.9H17c-0.5,0-1,0.4-1,1V78H2V26.2z"/>
	<path d="M65.4,46.4h6.2c0.6,0,1-0.5,1-1V35.3c0-0.5-0.4-1-1-1h-6.2c-0.6,0-1,0.5-1,1v10.1C64.4,46,64.9,46.4,65.4,46.4z M66.4,36.3
		h4.2v8.1h-4.2V36.3z"/>
	<path d="M71.7,51.5h-6.2c-0.6,0-1,0.5-1,1v10.1c0,0.5,0.4,1,1,1h6.2c0.6,0,1-0.5,1-1V52.5C72.7,52,72.2,51.5,71.7,51.5z M70.7,61.6
		h-4.2v-8.1h4.2V61.6z"/>
	<path d="M8.2,46.4h6.2c0.6,0,1-0.5,1-1V35.3c0-0.5-0.4-1-1-1H8.2c-0.6,0-1,0.5-1,1v10.1C7.2,46,7.6,46.4,8.2,46.4z M9.2,36.3h4.2
		v8.1H9.2V36.3z"/>
	<path d="M30.1,46.4h6.2c0.5,0,1-0.5,1-1V35.3c0-0.5-0.5-1-1-1h-6.2c-0.5,0-1,0.5-1,1v10.1C29.1,46,29.6,46.4,30.1,46.4z M31.1,36.3
		h4.2v8.1h-4.2V36.3z"/>
	<path d="M43.9,46.4h6.2c0.5,0,1-0.5,1-1V35.3c0-0.5-0.5-1-1-1h-6.2c-0.5,0-1,0.5-1,1v10.1C42.9,46,43.4,46.4,43.9,46.4z M44.9,36.3
		h4.2v8.1h-4.2C44.9,44.4,44.9,36.3,44.9,36.3z"/>
	<path d="M30.1,29.3h6.2c0.5,0,1-0.5,1-1V18.2c0-0.5-0.5-1-1-1h-6.2c-0.5,0-1,0.5-1,1v10.1C29.1,28.9,29.6,29.3,30.1,29.3z
		 M31.1,19.2h4.2v8.1h-4.2V19.2z"/>
	<path d="M43.9,29.3h6.2c0.5,0,1-0.5,1-1V18.2c0-0.5-0.5-1-1-1h-6.2c-0.5,0-1,0.5-1,1v10.1C42.9,28.9,43.4,29.3,43.9,29.3z
		 M44.9,19.2h4.2v8.1h-4.2C44.9,27.3,44.9,19.2,44.9,19.2z"/>
	<path d="M14.4,51.5H8.2c-0.6,0-1,0.5-1,1v10.1c0,0.5,0.4,1,1,1h6.2c0.6,0,1-0.5,1-1V52.5C15.4,52,14.9,51.5,14.4,51.5z M13.4,61.6
		H9.2v-8.1h4.2V61.6z"/>
</g>
<path class="st0" d="M74.7,79H5.3C2.9,79,1,77.1,1,74.7V5.3C1,2.9,2.9,1,5.3,1h69.4C77,1,79,2.9,79,5.3v69.4C79,77.1,77,79,74.7,79z
	"/>
</svg>
