<?xml version="1.0" encoding="utf-8"?>
<!-- Generator: Adobe Illustrator 23.0.4, SVG Export Plug-In . SVG Version: 6.00 Build 0)  -->
<svg version="1.1" id="Livello_1" xmlns="http://www.w3.org/2000/svg" xmlns:xlink="http://www.w3.org/1999/xlink" x="0px" y="0px"
	 viewBox="0 0 80 80" style="enable-background:new 0 0 80 80;" xml:space="preserve">
<style type="text/css">
	.st0{fill:none;stroke:#000000;stroke-width:2.0263;stroke-miterlimit:10;}
</style>
<path class="st0" d="M74.7,79.03H5.3c-2.37,0-4.3-1.93-4.3-4.3V5.36c0-2.37,1.92-4.3,4.3-4.3h69.4c2.37,0,4.3,1.93,4.3,4.3v69.37
	C79.01,77.1,77.09,79.03,74.7,79.03z"/>
<g>
	<g>
		<path d="M58.95,47.93H17.62v-10.1h41.33C58.95,37.84,58.95,47.93,58.95,47.93z M19.97,45.48h36.62v-5.19H19.97V45.48z"/>
	</g>
	<g>
		<path d="M31.98,40.29h-7.07V23.35c0-2.03,1.59-3.69,3.54-3.69c1.95,0,3.54,1.65,3.54,3.69C31.98,23.35,31.98,40.29,31.98,40.29z
			 M27.26,37.84h2.37V23.35c0-0.68-0.53-1.24-1.18-1.24c-0.65,0-1.19,0.55-1.19,1.24L27.26,37.84L27.26,37.84z"/>
	</g>
	<g>
		<path d="M52.32,40.29h-7.07V23.35c0-2.03,1.59-3.69,3.54-3.69s3.53,1.65,3.53,3.69V40.29z M47.6,37.84h2.37V23.35
			c0-0.68-0.53-1.24-1.18-1.24c-0.65,0-1.19,0.55-1.19,1.24L47.6,37.84L47.6,37.84z"/>
	</g>
	<g>
		<path d="M38.62,75.2c-10.11,0-18.33-8.57-18.33-19.12v-10.6h36.66v10.6C56.95,66.62,48.72,75.2,38.62,75.2z M22.64,47.93v8.15
			c0,9.19,7.17,16.66,15.98,16.66s15.98-7.47,15.98-16.66v-8.15H22.64z"/>
	</g>
	<g>
		<path d="M42.84,80.18h-8.46v-7.97l1.38,0.26c2.03,0.38,3.66,0.38,5.69,0l1.38-0.26C42.84,72.21,42.84,80.18,42.84,80.18z
			 M36.74,77.72h3.75v-2.64c-1.29,0.15-2.47,0.15-3.75,0C36.74,75.09,36.74,77.72,36.74,77.72z"/>
	</g>
</g>
</svg>
