<?xml version="1.0" encoding="utf-8"?>
<!-- Generator: Adobe Illustrator 23.0.4, SVG Export Plug-In . SVG Version: 6.00 Build 0)  -->
<svg version="1.1" id="Livello_1" xmlns="http://www.w3.org/2000/svg" xmlns:xlink="http://www.w3.org/1999/xlink" x="0px" y="0px"
	 viewBox="0 0 80 80" style="enable-background:new 0 0 80 80;" xml:space="preserve">
<style type="text/css">
	.st0{fill:none;stroke:#000000;stroke-width:2.0263;stroke-miterlimit:10;}
	.st1{fill:none;stroke:#000000;stroke-width:2;stroke-miterlimit:10;}
</style>
<path class="st0" d="M74.7,79H5.3C2.9,79,1,77.1,1,74.7V5.4C1,3,2.9,1.1,5.3,1.1h69.4C77.1,1.1,79,3,79,5.4v69.4
	C79,77.1,77.1,79,74.7,79z"/>
<path class="st1" d="M47.8,69.1H33c-1.6,0-3-1.3-3-3V18.7c0-4.1,3.3-7.4,7.4-7.4h6c4.1,0,7.4,3.3,7.4,7.4v47.4
	C50.8,67.7,49.5,69.1,47.8,69.1z"/>
<line class="st1" x1="40.4" y1="23.5" x2="40.4" y2="35.4"/>
</svg>
