<?xml version="1.0" encoding="utf-8"?>
<!-- Generator: Adobe Illustrator 23.0.4, SVG Export Plug-In . SVG Version: 6.00 Build 0)  -->
<svg version="1.1" id="Livello_1" xmlns="http://www.w3.org/2000/svg" xmlns:xlink="http://www.w3.org/1999/xlink" x="0px" y="0px"
	 viewBox="0 0 6250 6250" style="enable-background:new 0 0 6250 6250;" xml:space="preserve">
<g>
	<path d="M6258.4,323v5604.3c0,88.9-36.3,169.7-94.8,228.2c-58.5,58.5-139.3,94.8-228.2,94.8H331c-88.9,0-169.7-36.3-228.2-94.8
		S8,6016.3,8,5927.4V323c0-88.9,36.3-169.7,94.8-228.2S242.1,0,331,0h5604.3c88.9,0,169.7,36.3,228.2,94.8
		C6222.1,153.3,6258.4,234.1,6258.4,323L6258.4,323z M4064.1,2311.9V3075l982.7,0.3V1305.1c0-25.7-10.5-49-27.5-66
		c-17-17-40.4-27.5-66-27.5H1313.1c-25.7,0-49,10.5-66,27.5c-17,17-27.5,40.4-27.5,66v3640.2c0,25.7,10.5,49,27.5,66
		c17,17,40.4,27.5,66,27.5v0.2l2273.5-0.5l1656.9-1682V1123.1c0-29.7-12.2-56.7-31.8-76.3c-19.6-19.6-46.6-31.8-76.3-31.8H1131
		c-29.7,0-56.7,12.2-76.3,31.8c-19.6,19.6-31.8,46.6-31.8,76.3v4004.2c0,29.7,12.2,56.7,31.8,76.3c19.6,19.6,46.6,31.8,76.3,31.8
		v0.2l2642.1,4.2L5440,3578.2V941.1c0-33.7-13.8-64.4-36.1-86.6c-22.3-22.3-52.9-36.1-86.6-36.1H949c-33.7,0-64.4,13.8-86.6,36.1
		c-22.3,22.3-36.1,52.9-36.1,86.6v4368.3c0,33.7,13.8,64.4,36.1,86.6c22.3,22.3,52.9,36.1,86.6,36.1v0.2l3024.2,1.6l1663.5-1668.3
		V759.1c0-37.7-15.5-72-40.4-97c-24.9-24.9-59.2-40.4-97-40.4H767c-37.7,0-72,15.5-97,40.4c-24.9,24.9-40.4,59.2-40.4,97v4732.3
		c0,37.7,15.5,72,40.4,97c24.9,24.9,59.2,40.4,97,40.4v0.2l3389.8,3.8l1676.4-1679.9V577.1c0-41.7-17.1-79.7-44.7-107.3
		c-27.6-27.6-65.5-44.7-107.3-44.7H585c-41.7,0-79.7,17.1-107.3,44.7c-27.6,27.6-44.7,65.5-44.7,107.3v5096.3
		c0,41.7,17.1,79.7,44.7,107.3c27.6,27.6,65.5,44.7,107.3,44.7H4167c29,0,52.4,23.5,52.4,52.4s-23.5,52.4-52.4,52.4H585
		c-70.7,0-134.9-28.9-181.4-75.4c-46.5-46.5-75.4-110.7-75.4-181.4V577.1c0-70.7,28.9-134.9,75.4-181.4s110.7-75.4,181.4-75.4
		h5096.3c70.7,0,134.9,28.9,181.4,75.4c46.5,46.5,75.4,110.7,75.4,181.4v3418.7c-579.3,580.5-1158.5,1161-1737.8,1741.5L767,5733.3
		v0.2c-66.7,0-127.2-27.2-171.1-71.1c-43.9-43.9-71.1-104.4-71.1-171.1V759.1c0-66.7,27.2-127.2,71.1-171.1s104.4-71.1,171.1-71.1
		h4732.3c66.7,0,127.2,27.2,171.1,71.1s71.1,104.4,71.1,171.1v3049.4c-574.9,576.6-1149.9,1153.3-1724.8,1729.9L949,5536.7v0.2
		c-62.6,0-119.6-25.6-160.8-66.8c-41.2-41.2-66.8-98.1-66.8-160.8V941.1c0-62.6,25.6-119.6,66.8-160.8
		c41.2-41.2,98.1-66.8,160.8-66.8h4368.3c62.6,0,119.6,25.6,160.8,66.8c41.2,41.2,66.8,98.1,66.8,160.8v2680.2
		c-576.1,574.4-1152.3,1148.8-1728.5,1723.1l-2685.3-4.3v0.2c-58.6,0-111.9-23.9-150.5-62.5C942,5239.2,918,5186,918,5127.3V1123.1
		c0-58.6,23.9-111.9,62.5-150.5s91.8-62.5,150.5-62.5h4004.2c58.6,0,111.9,23.9,150.5,62.5s62.5,91.8,62.5,150.5v2276
		C4775.7,3980.4,4203.1,4561.7,3630.5,5143l-2317.4,0.5v0.2c-54.6,0-104.2-22.3-140.2-58.2c-35.9-35.9-58.2-85.5-58.2-140.2V1305.1
		c0-54.6,22.3-104.2,58.2-140.2c35.9-35.9,85.5-58.2,140.2-58.2h3640.2c54.6,0,104.2,22.3,140.2,58.2
		c35.9,35.9,58.2,85.5,58.2,140.2v1874.7l-1087.6-0.3v759c0,32.4-13.2,61.8-34.5,83.1c-21.3,21.3-50.7,34.5-83.1,34.5H2319.9
		c-32.4,0-61.8-13.2-83.1-34.5c-21.3-21.3-34.5-50.7-34.5-83.1V2311.9c0-32.4,13.2-61.8,34.5-83.1c21.3-21.3,50.7-34.5,83.1-34.5
		h1626.5c32.4,0,61.8,13.2,83.1,34.5C4050.9,2250.1,4064.1,2279.5,4064.1,2311.9L4064.1,2311.9z M3959.2,3938.5V2311.9
		c0-3.5-1.5-6.7-3.8-9c-2.3-2.3-5.5-3.8-9-3.8H2319.9c-3.5,0-6.7,1.5-9,3.8c-2.3,2.3-3.8,5.5-3.8,9v1626.5c0,3.5,1.5,6.7,3.8,9
		c2.3,2.3,5.5,3.8,9,3.8h1626.5c3.5,0,6.7-1.5,9-3.8C3957.8,3945.1,3959.2,3941.9,3959.2,3938.5L3959.2,3938.5z M6061.8,5927.4V323
		c0-34.7-14.3-66.3-37.2-89.2c-23-23-54.5-37.2-89.2-37.2H331c-34.7,0-66.3,14.3-89.2,37.2c-23,23-37.2,54.5-37.2,89.2v5604.3
		c0,34.7,14.3,66.3,37.2,89.2c23,23,54.5,37.2,89.2,37.2h5604.3c34.7,0,66.3-14.3,89.2-37.2
		C6047.5,5993.6,6061.8,5962,6061.8,5927.4z"/>
</g>
<text transform="matrix(1 0 0 1 -143.6357 6403.9736)" style="font-family:'HelveticaNeue-Bold'; font-size:0.6554px;">Created by Oleksandr Panasovskyi</text>
<text transform="matrix(1 0 0 1 -143.6357 6404.6289)" style="font-family:'HelveticaNeue-Bold'; font-size:0.6554px;">from the Noun Project</text>
</svg>
