<?xml version="1.0" encoding="utf-8"?>
<!-- Generator: Adobe Illustrator 23.0.4, SVG Export Plug-In . SVG Version: 6.00 Build 0)  -->
<svg version="1.1" id="Livello_1" xmlns="http://www.w3.org/2000/svg" xmlns:xlink="http://www.w3.org/1999/xlink" x="0px" y="0px"
	 viewBox="0 0 80 80" style="enable-background:new 0 0 80 80;" xml:space="preserve">
<style type="text/css">
	.st0{fill:none;stroke:#000000;stroke-width:2.0263;stroke-miterlimit:10;}
	.st1{fill-rule:evenodd;clip-rule:evenodd;}
</style>
<path class="st0" d="M74.7,79.03H5.3c-2.37,0-4.3-1.93-4.3-4.3V5.36c0-2.37,1.92-4.3,4.3-4.3h69.4c2.37,0,4.3,1.93,4.3,4.3v69.37
	C79.01,77.1,77.09,79.03,74.7,79.03z"/>
<path class="st1" d="M25.72,10.66V1.11c0-0.61,0.5-1.11,1.11-1.11c0.61,0,1.11,0.5,1.11,1.11v11.77l20.58,20.58l19.7,4.38
	c0.86,0.19,1.17,1.25,0.55,1.87L35.4,73.08c-0.62,0.62-1.68,0.31-1.87-0.55l-4.38-19.7L4.91,28.59c-0.43-0.43-0.43-1.14,0-1.57
	l17.8-17.8c0.43-0.43,1.14-0.43,1.57,0L25.72,10.66z M26.83,34.48c1.84,0,3.34-1.49,3.34-3.34c0-1.84-1.49-3.34-3.34-3.34
	s-3.34,1.49-3.34,3.34C23.49,32.99,24.99,34.48,26.83,34.48z M31.39,52.63l3.88,17.45l30.5-30.5L48.32,35.7L31.39,52.63z
	 M25.72,25.69V13.81l-2.22-2.22L7.27,27.81l22.9,22.9l16.22-16.22L27.94,16.03v9.66c2.54,0.52,4.45,2.76,4.45,5.45
	c0,3.07-2.49,5.56-5.56,5.56s-5.56-2.49-5.56-5.56C21.27,28.45,23.18,26.21,25.72,25.69L25.72,25.69z"/>
</svg>
